<?xml version="1.0" encoding="UTF-8" standalone="no"?>
<!-- Created with Inkscape (http://www.inkscape.org/) -->

<svg
   xmlns:dc="http://purl.org/dc/elements/1.1/"
   xmlns:cc="http://creativecommons.org/ns#"
   xmlns:rdf="http://www.w3.org/1999/02/22-rdf-syntax-ns#"
   xmlns:svg="http://www.w3.org/2000/svg"
   xmlns="http://www.w3.org/2000/svg"
   xmlns:sodipodi="http://sodipodi.sourceforge.net/DTD/sodipodi-0.dtd"
   xmlns:inkscape="http://www.inkscape.org/namespaces/inkscape"
   width="354.33069"
   height="354.33069"
   id="svg2"
   version="1.1"
   inkscape:version="0.48.2 r9819"
   sodipodi:docname="New document 1">
  <sodipodi:namedview
     id="base"
     pagecolor="#ffffff"
     bordercolor="#666666"
     borderopacity="1.0"
     inkscape:pageopacity="0.0"
     inkscape:pageshadow="2"
     inkscape:zoom="1.6340668"
     inkscape:cx="177.16534"
     inkscape:cy="177.16534"
     inkscape:document-units="mm"
     inkscape:current-layer="layer1"
     showgrid="false"
     units="mm"
     inkscape:window-width="1024"
     inkscape:window-height="749"
     inkscape:window-x="0"
     inkscape:window-y="0"
     inkscape:window-maximized="0" />
  <defs
     id="defs4" />
  <metadata
     id="metadata7">
    <rdf:RDF>
      <cc:Work
         rdf:about="">
        <dc:format>image/svg+xml</dc:format>
        <dc:type
           rdf:resource="http://purl.org/dc/dcmitype/StillImage" />
        <dc:title></dc:title>
      </cc:Work>
    </rdf:RDF>
  </metadata>
  <g
     inkscape:label="Layer 1"
     inkscape:groupmode="layer"
     id="layer1"
     transform="translate(0,-698.03149)">
    <g
       inkscape:label="Gear24"
       transform="translate(225.77733,902.92327)"
       id="g3047">
      <path
         inkscape:connector-curvature="0"
         style="fill:none;stroke:#000000"
         d="M 69.802,-5.621 L 71.556,-5.762 L 76.231,-4.996 L 82.729,-2.277 L 82.729,2.277 L 76.231,4.996 L 71.556,5.762 L 69.802,5.621 L 68.879,12.637 L 70.609,12.954 L 74.926,14.904 L 80.5,19.212 L 79.321,23.612 L 72.34,24.556 L 67.626,24.086 L 65.969,23.496 L 63.261,30.033 L 64.85,30.788 L 68.516,33.788 L 72.784,39.392 L 70.507,43.337 L 63.52,42.442 L 59.088,40.768 L 57.64,39.769 L 53.332,45.383 L 54.672,46.523 L 57.436,50.37 L 60.109,56.888 L 56.888,60.109 L 50.37,57.436 L 46.523,54.672 L 45.383,53.332 L 39.769,57.64 L 40.768,59.088 L 42.442,63.52 L 43.337,70.507 L 39.392,72.784 L 33.788,68.516 L 30.788,64.85 L 30.033,63.261 L 23.496,65.969 L 24.086,67.626 L 24.556,72.34 L 23.612,79.321 L 19.212,80.5 L 14.904,74.926 L 12.954,70.609 L 12.637,68.879 L 5.621,69.802 L 5.762,71.556 L 4.996,76.231 L 2.277,82.729 L -2.277,82.729 L -4.996,76.231 L -5.762,71.556 L -5.621,69.802 L -12.637,68.879 L -12.954,70.609 L -14.904,74.926 L -19.212,80.5 L -23.612,79.321 L -24.556,72.34 L -24.086,67.626 L -23.496,65.969 L -30.033,63.261 L -30.788,64.85 L -33.788,68.516 L -39.392,72.784 L -43.337,70.507 L -42.442,63.52 L -40.768,59.088 L -39.769,57.64 L -45.383,53.332 L -46.523,54.672 L -50.37,57.436 L -56.888,60.109 L -60.109,56.888 L -57.436,50.37 L -54.672,46.523 L -53.332,45.383 L -57.64,39.769 L -59.088,40.768 L -63.52,42.442 L -70.507,43.337 L -72.784,39.392 L -68.516,33.788 L -64.85,30.788 L -63.261,30.033 L -65.969,23.496 L -67.626,24.086 L -72.34,24.556 L -79.321,23.612 L -80.5,19.212 L -74.926,14.904 L -70.609,12.954 L -68.879,12.637 L -69.802,5.621 L -71.556,5.762 L -76.231,4.996 L -82.729,2.277 L -82.729,-2.277 L -76.231,-4.996 L -71.556,-5.762 L -69.802,-5.621 L -68.879,-12.637 L -70.609,-12.954 L -74.926,-14.904 L -80.5,-19.212 L -79.321,-23.612 L -72.34,-24.556 L -67.626,-24.086 L -65.969,-23.496 L -63.261,-30.033 L -64.85,-30.788 L -68.516,-33.788 L -72.784,-39.392 L -70.507,-43.337 L -63.52,-42.442 L -59.088,-40.768 L -57.64,-39.769 L -53.332,-45.383 L -54.672,-46.523 L -57.436,-50.37 L -60.109,-56.888 L -56.888,-60.109 L -50.37,-57.436 L -46.523,-54.672 L -45.383,-53.332 L -39.769,-57.64 L -40.768,-59.088 L -42.442,-63.52 L -43.337,-70.507 L -39.392,-72.784 L -33.788,-68.516 L -30.788,-64.85 L -30.033,-63.261 L -23.496,-65.969 L -24.086,-67.626 L -24.556,-72.34 L -23.612,-79.321 L -19.212,-80.5 L -14.904,-74.926 L -12.954,-70.609 L -12.637,-68.879 L -5.621,-69.802 L -5.762,-71.556 L -4.996,-76.231 L -2.277,-82.729 L 2.277,-82.729 L 4.996,-76.231 L 5.762,-71.556 L 5.621,-69.802 L 12.637,-68.879 L 12.954,-70.609 L 14.904,-74.926 L 19.212,-80.5 L 23.612,-79.321 L 24.556,-72.34 L 24.086,-67.626 L 23.496,-65.969 L 30.033,-63.261 L 30.788,-64.85 L 33.788,-68.516 L 39.392,-72.784 L 43.337,-70.507 L 42.442,-63.52 L 40.768,-59.088 L 39.769,-57.64 L 45.383,-53.332 L 46.523,-54.672 L 50.37,-57.436 L 56.888,-60.109 L 60.109,-56.888 L 57.436,-50.37 L 54.672,-46.523 L 53.332,-45.383 L 57.64,-39.769 L 59.088,-40.768 L 63.52,-42.442 L 70.507,-43.337 L 72.784,-39.392 L 68.516,-33.788 L 64.85,-30.788 L 63.261,-30.033 L 65.969,-23.496 L 67.626,-24.086 L 72.34,-24.556 L 79.321,-23.612 L 80.5,-19.212 L 74.926,-14.904 L 70.609,-12.954 L 68.879,-12.637 z"
         id="path3049" />
    </g>
    <g
       id="g3070"
       transform="translate(84.709182,909.45451)"
       inkscape:label="Gear12">
      <path
         id="path3072"
         d="M 31.493,-4.625 L 35.513,-5.215 L 37.87,-4.986 L 44.52,-1.976 L 44.52,1.976 L 37.87,4.986 L 35.513,5.215 L 31.493,4.625 L 29.586,11.742 L 33.362,13.24 L 35.29,14.617 L 39.543,20.549 L 37.567,23.971 L 30.304,23.253 L 28.147,22.273 L 24.962,19.752 L 19.752,24.962 L 22.273,28.147 L 23.253,30.304 L 23.971,37.567 L 20.549,39.543 L 14.617,35.29 L 13.24,33.362 L 11.742,29.586 L 4.625,31.493 L 5.215,35.513 L 4.986,37.87 L 1.976,44.52 L -1.976,44.52 L -4.986,37.87 L -5.215,35.513 L -4.625,31.493 L -11.742,29.586 L -13.24,33.362 L -14.617,35.29 L -20.549,39.543 L -23.971,37.567 L -23.253,30.304 L -22.273,28.147 L -19.752,24.962 L -24.962,19.752 L -28.147,22.273 L -30.304,23.253 L -37.567,23.971 L -39.543,20.549 L -35.29,14.617 L -33.362,13.24 L -29.586,11.742 L -31.493,4.625 L -35.513,5.215 L -37.87,4.986 L -44.52,1.976 L -44.52,-1.976 L -37.87,-4.986 L -35.513,-5.215 L -31.493,-4.625 L -29.586,-11.742 L -33.362,-13.24 L -35.29,-14.617 L -39.543,-20.549 L -37.567,-23.971 L -30.304,-23.253 L -28.147,-22.273 L -24.962,-19.752 L -19.752,-24.962 L -22.273,-28.147 L -23.253,-30.304 L -23.971,-37.567 L -20.549,-39.543 L -14.617,-35.29 L -13.24,-33.362 L -11.742,-29.586 L -4.625,-31.493 L -5.215,-35.513 L -4.986,-37.87 L -1.976,-44.52 L 1.976,-44.52 L 4.986,-37.87 L 5.215,-35.513 L 4.625,-31.493 L 11.742,-29.586 L 13.24,-33.362 L 14.617,-35.29 L 20.549,-39.543 L 23.971,-37.567 L 23.253,-30.304 L 22.273,-28.147 L 19.752,-24.962 L 24.962,-19.752 L 28.147,-22.273 L 30.304,-23.253 L 37.567,-23.971 L 39.543,-20.549 L 35.29,-14.617 L 33.362,-13.24 L 29.586,-11.742 z"
         style="fill:none;stroke:#000000"
         inkscape:connector-curvature="0" />
    </g>
    <path
       sodipodi:type="star"
       style="opacity:0.98000004;color:#000000;fill:none;stroke:#0000db;stroke-width:1.5;stroke-linecap:butt;stroke-linejoin:miter;stroke-miterlimit:4;stroke-opacity:1;stroke-dasharray:none;stroke-dashoffset:0;marker:none;visibility:visible;display:inline;overflow:visible;enable-background:accumulate"
       id="path3081"
       sodipodi:sides="5"
       sodipodi:cx="112.98445"
       sodipodi:cy="77.47567"
       sodipodi:r1="23.825459"
       sodipodi:r2="8.3389091"
       sodipodi:arg1="-0.34464732"
       sodipodi:arg2="0.28367122"
       inkscape:flatsided="false"
       inkscape:rounded="0"
       inkscape:randomized="0"
       d="M 135.40885,69.425887 L 120.99009,79.809581 L 127.56977,96.315017 L 113.23865,85.810704 L 99.574279,97.168809 L 105.13591,80.293093 L 90.111191,70.807353 L 107.87959,70.881899 L 112.25817,53.661284 L 117.67801,70.583072 z"
       transform="translate(-18.930673,745.99049)"
       inkscape:transform-center-x="0.22443262"
       inkscape:transform-center-y="-2.0606233" />
    <path
       sodipodi:type="arc"
       style="opacity:0.98000004;color:#000000;fill:none;stroke:#0000db;stroke-width:1.5;stroke-linecap:butt;stroke-linejoin:miter;stroke-miterlimit:4;stroke-opacity:1;stroke-dasharray:none;stroke-dashoffset:0;marker:none;visibility:visible;display:inline;overflow:visible;enable-background:accumulate"
       id="path3085"
       sodipodi:cx="201.33817"
       sodipodi:cy="59.973068"
       sodipodi:rx="66.704742"
       sodipodi:ry="12.239402"
       d="M 268.04291,59.973068 A 66.704742,12.239402 0 1 1 134.63342,59.973068 A 66.704742,12.239402 0 1 1 268.04291,59.973068 z"
       transform="translate(-10.403492,727.40605)" />
  </g>
</svg>
