<?xml version="1.0" encoding="UTF-8" standalone="no"?>
<!-- Created with Inkscape (http://www.inkscape.org/) -->

<svg
   xmlns:dc="http://purl.org/dc/elements/1.1/"
   xmlns:cc="http://creativecommons.org/ns#"
   xmlns:rdf="http://www.w3.org/1999/02/22-rdf-syntax-ns#"
   xmlns:svg="http://www.w3.org/2000/svg"
   xmlns="http://www.w3.org/2000/svg"
   xmlns:sodipodi="http://sodipodi.sourceforge.net/DTD/sodipodi-0.dtd"
   xmlns:inkscape="http://www.inkscape.org/namespaces/inkscape"
   width="212.59842"
   height="212.59842"
   id="svg2"
   version="1.1"
   inkscape:version="0.48.2 r9819"
   sodipodi:docname="foo.svg">
  <sodipodi:namedview
     id="base"
     pagecolor="#ffffff"
     bordercolor="#666666"
     borderopacity="1.0"
     inkscape:pageopacity="0.0"
     inkscape:pageshadow="2"
     inkscape:zoom="2.953926"
     inkscape:cx="106.29921"
     inkscape:cy="106.29921"
     inkscape:document-units="mm"
     inkscape:current-layer="layer1"
     showgrid="false"
     units="mm"
     inkscape:window-width="1123"
     inkscape:window-height="798"
     inkscape:window-x="134"
     inkscape:window-y="0"
     inkscape:window-maximized="0" />
  <title
     id="title4272">sample1</title>
  <defs
     id="defs4" />
  <metadata
     id="metadata7">
    <rdf:RDF>
      <cc:Work
         rdf:about="">
        <dc:format>image/svg+xml</dc:format>
        <dc:type
           rdf:resource="http://purl.org/dc/dcmitype/StillImage" />
        <dc:title>sample1</dc:title>
        <dc:date>10 June 2012</dc:date>
        <dc:creator>
          <cc:Agent>
            <dc:title>dan.newman@mtbaldy.us</dc:title>
          </cc:Agent>
        </dc:creator>
        <cc:license
           rdf:resource="http://creativecommons.org/licenses/by-nc/3.0/" />
        <dc:rights>
          <cc:Agent>
            <dc:title>dan.newman@mtbaldy.us</dc:title>
          </cc:Agent>
        </dc:rights>
        <dc:contributor>
          <cc:Agent>
            <dc:title>Dan Newman</dc:title>
          </cc:Agent>
        </dc:contributor>
      </cc:Work>
      <cc:License
         rdf:about="http://creativecommons.org/licenses/by-nc/3.0/">
        <cc:permits
           rdf:resource="http://creativecommons.org/ns#Reproduction" />
        <cc:permits
           rdf:resource="http://creativecommons.org/ns#Distribution" />
        <cc:requires
           rdf:resource="http://creativecommons.org/ns#Notice" />
        <cc:requires
           rdf:resource="http://creativecommons.org/ns#Attribution" />
        <cc:prohibits
           rdf:resource="http://creativecommons.org/ns#CommercialUse" />
        <cc:permits
           rdf:resource="http://creativecommons.org/ns#DerivativeWorks" />
      </cc:License>
    </rdf:RDF>
  </metadata>
  <g
     inkscape:label="Layer 1"
     inkscape:groupmode="layer"
     id="layer1"
     transform="translate(0,-839.76377)">
    <g
       transform="translate(0,839.76377)"
       style="font-size:18px;font-style:normal;font-variant:normal;font-weight:normal;font-stretch:normal;text-align:start;line-height:125%;letter-spacing:0px;word-spacing:0px;writing-mode:lr-tb;text-anchor:start;fill:#000000;fill-opacity:1;stroke:none;font-family:Sans;-inkscape-font-specification:Sans"
       id="text2989" />
    <g
       style="font-size:18px;font-style:normal;font-variant:normal;font-weight:normal;font-stretch:normal;text-align:start;line-height:125%;letter-spacing:0px;word-spacing:0px;writing-mode:lr-tb;text-anchor:start;fill:#000000;fill-opacity:1;stroke:none;font-family:Sans;-inkscape-font-specification:Sans"
       id="text3836"
       transform="matrix(0.4286875,0,0,0.4286875,57.946812,546.84184)">
      <path
         d="M 29.15229,1013.7831 C 26.963465,1015.4847 26.570199,1013.8834 25.903097,1014.5542 C 25.422164,1015.0377 26.092734,1015.6426 26.264318,1015.8133 L 28.042557,1017.5819 C 28.214141,1017.7525 28.822656,1018.4198 29.303589,1017.9362 C 29.97069,1017.2655 28.367337,1016.8809 30.057008,1014.6829 L 32.725415,1011.9999 L 34.411704,1008.5574 L 34.380507,1008.5264 L 29.15229,1013.7831 M 34.880862,1020.9079 C 34.306845,1021.485 34.229358,1021.5942 33.512755,1021.2227 C 33.247917,1021.0835 32.967904,1021.0842 32.750708,1021.3026 C 32.300802,1021.755 32.784527,1022.2981 32.846922,1022.3602 L 37.261322,1026.7506 C 37.323716,1026.8127 37.869498,1027.2935 38.319403,1026.8411 C 38.536599,1026.6227 38.535838,1026.3427 38.395112,1026.0786 C 38.019816,1025.3641 38.128499,1025.286 38.702516,1024.7088 L 46.83185,1016.5352 C 47.405868,1015.958 47.483354,1015.8489 48.199958,1016.2203 C 48.464795,1016.3596 48.744809,1016.3588 48.962005,1016.1405 C 49.41191,1015.6881 48.928185,1015.1449 48.865791,1015.0829 L 44.747764,1010.9872 L 34.880862,1020.9079 M 36.514333,1003.7603 C 36.141997,1004.1347 36.532131,1004.5847 36.7038,1004.7865 C 36.953461,1005.0658 36.829688,1005.3151 36.737365,1005.6887 C 36.660472,1006.0156 36.505755,1006.3271 36.351038,1006.6387 L 30.007979,1019.5366 L 30.460338,1019.9865 L 39.034807,1015.3274 L 41.858354,1012.4885 L 41.827157,1012.4574 L 38.549897,1014.3487 L 38.5187,1014.3176 L 41.612448,1007.8689 L 37.650407,1003.9283 C 37.463224,1003.7422 36.995266,1003.2767 36.514333,1003.7603"
         style="font-size:22px;font-style:normal;font-variant:normal;font-weight:bold;font-stretch:normal;text-align:start;line-height:125%;writing-mode:lr-tb;text-anchor:start;fill:#000000;fill-opacity:1;stroke:none;font-family:Stencil Std;-inkscape-font-specification:Stencil Std Bold"
         id="path3851"
         inkscape:connector-curvature="0" />
      <path
         d="M 50.318423,1019.7792 L 50.264688,1019.7409 L 42.50751,1026.0712 C 41.260237,1027.1002 40.482821,1027.1673 39.966164,1027.0961 C 39.431596,1027.0121 39.139872,1026.777 38.833296,1027.2069 C 38.46285,1027.7263 39.094893,1028.2041 39.453125,1028.4596 L 41.512957,1029.9286 C 41.871188,1030.1841 42.431585,1030.6108 42.789257,1030.1092 C 43.044737,1029.751 42.870619,1029.4647 42.673452,1029.1349 C 42.256068,1028.4319 42.222465,1027.9486 43.288263,1027.0604 L 49.340662,1022.1354 L 50.318423,1019.7792 M 46.786859,1030.5283 C 46.449878,1031.3418 46.288812,1031.4161 45.631502,1031.3526 C 45.309233,1031.3119 45.137893,1031.3248 44.933509,1031.6114 C 44.601386,1032.0771 45.095273,1032.4834 45.453505,1032.7389 L 49.913489,1035.9196 C 50.253809,1036.1623 50.885852,1036.6401 51.23075,1036.1565 C 51.460682,1035.8341 51.353073,1035.5682 51.178955,1035.2819 C 50.830719,1034.7093 51.055513,1034.3562 51.305716,1033.778 L 56.692149,1020.5418 L 52.733689,1017.7187 L 51.811042,1018.5199 L 47.974002,1027.727 L 45.788789,1026.1685 L 44.797135,1027.0286 L 47.412226,1028.8936 L 46.786859,1030.5283"
         style="font-size:22px;font-style:normal;font-variant:normal;font-weight:bold;font-stretch:normal;text-align:start;line-height:125%;writing-mode:lr-tb;text-anchor:start;fill:#000000;fill-opacity:1;stroke:none;font-family:Stencil Std;-inkscape-font-specification:Stencil Std Bold"
         id="path3853"
         inkscape:connector-curvature="0" />
      <path
         d="M 67.509373,1031.9916 L 68.138307,1031.6655 C 69.523943,1030.9539 70.349206,1030.4306 71.963128,1030.5942 C 72.38628,1030.6326 72.829133,1030.6807 73.05439,1030.2277 C 73.367792,1029.5973 72.806291,1029.2935 72.333497,1029.0585 L 68.964834,1027.3837 C 68.551139,1027.1781 68.009338,1026.8842 67.70573,1027.4948 C 67.509855,1027.8888 67.766176,1028.1145 68.012816,1028.4091 C 68.387673,1028.8412 68.526357,1029.2541 68.261924,1029.786 C 68.026873,1030.2588 67.594599,1030.5353 67.132721,1030.7724 L 63.231569,1032.8868 C 62.828677,1033.1042 62.48466,1033.2526 62.27899,1033.6663 C 62.073321,1034.08 62.005549,1034.5622 61.937666,1034.9953 L 61.337406,1039.2666 C 61.327949,1039.4339 61.279541,1039.7784 61.201191,1039.936 C 60.985727,1040.3694 60.236798,1039.8496 59.913603,1040.4997 C 59.609996,1041.1104 60.20099,1041.4042 60.654084,1041.6295 L 65.59873,1044.0877 C 65.992726,1044.2836 66.623232,1044.6462 66.907251,1044.0749 C 67.093333,1043.7006 66.974798,1043.4943 66.747858,1043.2095 C 66.402495,1042.7675 66.50989,1042.4032 66.548055,1041.8817 L 67.509373,1031.9916 M 64.282568,1027.8077 C 64.644938,1027.0788 64.684002,1026.9508 65.481225,1027.0769 C 65.776498,1027.1254 66.04194,1027.0362 66.179053,1026.7604 C 66.463073,1026.1891 65.832568,1025.8265 65.753769,1025.7874 L 60.17873,1023.0157 C 60.099931,1022.9765 59.43025,1022.6927 59.14623,1023.264 C 59.009117,1023.5398 59.098271,1023.8053 59.315193,1024.0114 C 59.896953,1024.5709 59.81849,1024.6793 59.45612,1025.4082 L 54.324171,1035.7309 C 53.9618,1036.4598 53.922736,1036.5877 53.125513,1036.4617 C 52.830241,1036.4131 52.564798,1036.5023 52.427685,1036.7781 C 52.143665,1037.3494 52.77417,1037.712 52.852969,1037.7512 L 58.428008,1040.5228 C 58.506808,1040.562 59.176488,1040.8458 59.460508,1040.2745 C 59.597621,1039.9987 59.508467,1039.7332 59.291546,1039.5271 C 58.709785,1038.9676 58.788248,1038.8592 59.150618,1038.1303 L 64.282568,1027.8077"
         style="font-size:22px;font-style:normal;font-variant:normal;font-weight:bold;font-stretch:normal;text-align:start;line-height:125%;writing-mode:lr-tb;text-anchor:start;fill:#000000;fill-opacity:1;stroke:none;font-family:Stencil Std;-inkscape-font-specification:Stencil Std Bold"
         id="path3855"
         inkscape:connector-curvature="0" />
      <path
         d="M 72.855815,1029.989 C 72.762517,1030.2825 72.891237,1030.5312 73.137142,1030.7017 C 73.797659,1031.1655 73.736708,1031.2847 73.490133,1032.0604 L 69.998102,1043.0468 C 69.751528,1043.8226 69.732508,1043.955 68.92538,1043.9524 C 68.626161,1043.9496 68.377485,1044.0784 68.284187,1044.3719 C 68.090926,1044.9799 68.769488,1045.2418 68.853353,1045.2684 L 74.388475,1047.0278 L 79.373282,1031.3449 L 73.838161,1029.5856 C 73.754295,1029.5589 73.049076,1029.3809 72.855815,1029.989 M 79.930247,1032.8609 C 81.681987,1033.7408 82.424729,1035.1081 82.430056,1036.9796 C 82.434925,1037.3274 82.473115,1037.5704 82.829543,1037.6837 C 83.458534,1037.8836 83.60612,1037.4919 83.639441,1037.3871 L 84.99227,1033.1309 L 80.316769,1031.6448 L 79.930247,1032.8609 M 75.331962,1047.3276 L 80.154227,1048.8604 L 81.487063,1044.6671 C 81.51372,1044.5833 81.776544,1043.9743 81.10562,1043.761 C 80.728226,1043.6411 80.4958,1043.9365 80.249073,1044.2044 C 79.149848,1045.7018 77.4834,1046.4417 75.718484,1046.1116 L 75.331962,1047.3276 M 77.677753,1039.9475 C 78.485034,1040.458 78.623493,1041.4023 78.558951,1042.259 C 78.550492,1042.6488 78.569664,1043.0242 79.009957,1043.1642 C 79.659914,1043.3708 79.794993,1042.5826 79.848307,1042.4149 L 81.28777,1037.8862 C 81.341083,1037.7184 81.685825,1036.997 81.035868,1036.7904 C 80.595575,1036.6504 80.363149,1036.9459 80.145026,1037.269 C 79.703091,1038.0058 79.044825,1038.6968 78.090933,1038.6476 L 77.677753,1039.9475"
         style="font-size:22px;font-style:normal;font-variant:normal;font-weight:bold;font-stretch:normal;text-align:start;line-height:125%;writing-mode:lr-tb;text-anchor:start;fill:#000000;fill-opacity:1;stroke:none;font-family:Stencil Std;-inkscape-font-specification:Stencil Std Bold"
         id="path3857"
         inkscape:connector-curvature="0" />
      <path
         d="M 95.102653,1037.592 L 96.373871,1035.9326 C 96.564817,1035.6461 96.747593,1035.425 96.482818,1035.0594 C 96.294471,1034.792 95.835984,1034.5574 95.486692,1034.5139 C 95.1374,1034.4703 94.635334,1034.585 94.387066,1034.7979 C 94.040581,1035.0872 94.163435,1035.3464 94.29995,1035.6739 L 95.102653,1037.592 M 95.58846,1037.963 L 97.662381,1038.2217 C 98.011673,1038.2653 98.292749,1038.3226 98.478207,1037.9023 C 98.606385,1037.5857 98.578983,1037.0946 98.445192,1036.7453 C 98.305954,1036.4397 97.953856,1036.0632 97.65912,1035.9378 C 97.2334,1035.796 97.069731,1036.0416 96.859677,1036.3036 L 95.58846,1037.963 M 94.4096,1037.8159 L 93.604172,1035.9196 C 93.467658,1035.5922 93.366633,1035.3357 92.919124,1035.3686 C 92.580768,1035.415 92.16879,1035.6962 91.936906,1035.9555 C 91.724128,1036.2393 91.574161,1036.7305 91.623352,1037.0471 C 91.721694,1037.5027 91.986387,1037.5136 92.357509,1037.5599 L 94.4096,1037.8159 M 94.82459,1038.7545 L 93.553373,1040.4139 C 93.362426,1040.7005 93.182375,1040.8997 93.422595,1041.2844 C 93.632773,1041.5545 94.09126,1041.7891 94.440552,1041.8327 C 94.789844,1041.8762 95.29191,1041.7615 95.540178,1041.5486 C 95.889387,1041.2374 95.763808,1041.0001 95.627294,1040.6727 L 94.82459,1038.7545 M 94.297846,1038.3562 L 92.245756,1038.1002 C 91.89374,1038.0785 91.634495,1038.024 91.42993,1038.4197 C 91.279921,1038.7335 91.32643,1039.2492 91.465668,1039.5548 C 91.599459,1039.9041 91.929727,1040.2778 92.249017,1040.3842 C 92.674737,1040.526 92.835682,1040.3022 93.067567,1040.0429 L 94.297846,1038.3562 M 95.476707,1038.5033 L 96.298517,1040.446 C 96.437755,1040.7516 96.53878,1041.0081 96.986289,1040.9752 C 97.30009,1040.9479 97.7339,1040.6694 97.9494,1040.3638 C 98.159454,1040.1018 98.309422,1039.6105 98.262954,1039.2722 C 98.183719,1038.8411 97.897196,1038.8275 97.550628,1038.7621 L 95.476707,1038.5033"
         style="font-size:22px;font-style:normal;font-variant:normal;font-weight:bold;font-stretch:normal;text-align:start;line-height:125%;writing-mode:lr-tb;text-anchor:start;fill:#000000;fill-opacity:1;stroke:none;font-family:Stencil Std;-inkscape-font-specification:Stencil Std Bold"
         id="path3859"
         inkscape:connector-curvature="0" />
      <path
         d="M 112.71888,1037.8238 C 112.6884,1037.0104 112.66147,1036.8793 113.42187,1036.6086 C 113.70437,1036.51 113.89482,1036.3047 113.88328,1035.9969 C 113.85939,1035.3594 113.13225,1035.3426 113.04431,1035.3459 L 106.82268,1035.579 C 106.73474,1035.5823 106.0109,1035.6535 106.03479,1036.2911 C 106.04633,1036.5988 106.2516,1036.7893 106.5407,1036.8665 C 107.31922,1037.0795 107.30218,1037.2122 107.33266,1038.0257 L 107.7644,1049.5456 C 107.79489,1050.359 107.82181,1050.4901 107.06142,1050.7608 C 106.77891,1050.8594 106.58847,1051.0647 106.6,1051.3725 C 106.6239,1052.01 107.35103,1052.0268 107.43897,1052.0235 L 113.6606,1051.7903 C 113.74854,1051.787 114.47239,1051.7159 114.44849,1051.0783 C 114.43696,1050.7705 114.23168,1050.5801 113.94259,1050.5029 C 113.16406,1050.2899 113.1811,1050.1571 113.15062,1049.3437 L 112.71888,1037.8238"
         style="font-size:22px;font-style:normal;font-variant:normal;font-weight:bold;font-stretch:normal;text-align:start;line-height:125%;writing-mode:lr-tb;text-anchor:start;fill:#000000;fill-opacity:1;stroke:none;font-family:Stencil Std;-inkscape-font-specification:Stencil Std Bold"
         id="path3861"
         inkscape:connector-curvature="0" />
      <path
         d="M 117.44498,1048.0923 C 117.53985,1050.8631 116.01219,1050.2427 116.16434,1051.1764 C 116.27403,1051.8495 117.15721,1051.661 117.39606,1051.6221 L 119.87141,1051.2187 C 120.11025,1051.1798 121.00759,1051.0782 120.8979,1050.405 C 120.74575,1049.4714 119.49408,1050.5446 118.70437,1047.8871 L 117.63579,1041.3295 L 116.06599,1039.3563 L 116.02256,1039.3634 L 117.44498,1048.0923 M 126.55363,1040.6565 L 128.12697,1042.6514 L 128.1704,1042.6443 L 127.31058,1037.3679 C 126.80459,1034.2629 128.71957,1034.7979 128.5568,1033.799 C 128.45773,1033.1911 127.7341,1033.2644 127.51697,1033.2998 L 124.56392,1033.781 C 124.34678,1033.8164 123.63731,1033.9766 123.73638,1034.5846 C 123.89915,1035.5834 125.54521,1034.4681 126.05119,1037.5732 L 126.55363,1040.6565 M 120.35148,1034.4674 L 114.77109,1035.3768 C 114.31864,1035.4728 113.66723,1035.579 113.77338,1036.2304 C 113.85123,1036.7081 114.14766,1036.7489 114.53802,1036.8191 C 115.29349,1036.9411 115.45513,1037.2491 115.90162,1037.8005 L 126.08149,1050.2068 L 129.31682,1049.6795 L 128.46054,1044.4249 L 120.35148,1034.4674"
         style="font-size:22px;font-style:normal;font-variant:normal;font-weight:bold;font-stretch:normal;text-align:start;line-height:125%;writing-mode:lr-tb;text-anchor:start;fill:#000000;fill-opacity:1;stroke:none;font-family:Stencil Std;-inkscape-font-specification:Stencil Std Bold"
         id="path3863"
         inkscape:connector-curvature="0" />
      <path
         d="M 133.22606,1045.1634 C 133.75196,1047.8855 132.14623,1047.511 132.44215,1048.4095 C 132.65549,1049.0573 133.49846,1048.7333 133.72831,1048.6576 L 136.11045,1047.8731 C 136.3403,1047.7974 137.2108,1047.557 136.99746,1046.9092 C 136.70154,1046.0107 135.63259,1047.2661 134.43802,1044.7642 L 132.35968,1038.4537 L 130.50131,1036.7495 L 130.45952,1036.7632 L 133.22606,1045.1634 M 141.06339,1036.3978 L 142.92864,1038.1229 L 142.97043,1038.1092 L 141.29812,1033.0315 C 140.31401,1030.0434 142.28898,1030.2731 141.97241,1029.3119 C 141.77972,1028.7268 141.07639,1028.9121 140.86743,1028.9809 L 138.02559,1029.9168 C 137.81663,1029.9857 137.14083,1030.2546 137.33352,1030.8396 C 137.65009,1031.8009 139.10204,1030.4425 140.08616,1033.4306 L 141.06339,1036.3978 M 133.97178,1031.2519 L 128.60153,1033.0206 C 128.1696,1033.186 127.54272,1033.3925 127.74918,1034.0193 C 127.90058,1034.4791 128.19976,1034.4732 128.59628,1034.4816 C 129.36154,1034.4843 129.56925,1034.7633 130.09628,1035.2383 L 142.08668,1045.9049 L 145.20017,1044.8794 L 143.53474,1039.8226 L 133.97178,1031.2519"
         style="font-size:22px;font-style:normal;font-variant:normal;font-weight:bold;font-stretch:normal;text-align:start;line-height:125%;writing-mode:lr-tb;text-anchor:start;fill:#000000;fill-opacity:1;stroke:none;font-family:Stencil Std;-inkscape-font-specification:Stencil Std Bold"
         id="path3865"
         inkscape:connector-curvature="0" />
      <path
         d="M 146.59351,1025.7398 C 142.6266,1028.228 142.3921,1032.5686 144.37806,1036.4703 C 146.36401,1040.3719 150.01157,1042.7366 154.35771,1040.9934 L 153.77888,1039.8563 C 152.68774,1039.992 152.30992,1039.4437 152.06043,1038.9536 L 146.89095,1028.7975 C 146.64146,1028.3074 146.42049,1027.6793 147.17233,1026.8769 L 146.59351,1025.7398 M 155.23999,1040.5444 C 159.2069,1038.0561 159.4414,1033.7155 157.45544,1029.8138 C 155.46949,1025.9122 151.82193,1023.5475 147.47579,1025.2907 L 148.05462,1026.4278 C 149.14576,1026.2921 149.52358,1026.8404 149.77307,1027.3305 L 154.94255,1037.4866 C 155.19204,1037.9767 155.41301,1038.6048 154.66117,1039.4072 L 155.23999,1040.5444"
         style="font-size:22px;font-style:normal;font-variant:normal;font-weight:bold;font-stretch:normal;text-align:start;line-height:125%;writing-mode:lr-tb;text-anchor:start;fill:#000000;fill-opacity:1;stroke:none;font-family:Stencil Std;-inkscape-font-specification:Stencil Std Bold"
         id="path3867"
         inkscape:connector-curvature="0" />
      <path
         d="M 167.44565,1027.6405 L 159.76219,1021.3499 C 159.55749,1021.1706 159.45865,1021.1053 159.30818,1020.8884 C 158.79408,1020.1473 159.80262,1019.9028 159.3136,1019.1978 C 158.8622,1018.5471 158.06974,1019.2574 157.65397,1019.5458 L 153.69514,1022.2919 C 153.27937,1022.5802 152.5076,1023.0888 152.92139,1023.6853 C 153.09694,1023.9384 153.3544,1024.0008 153.64656,1023.9588 C 154.2851,1023.8372 154.26849,1023.929 154.77674,1024.3529 L 166.31007,1033.5689 L 168.91314,1031.7633 L 167.44565,1027.6405 M 166.85423,1026.0158 L 166.89038,1025.9908 L 164.50921,1019.3156 C 164.32927,1018.8246 164.18549,1018.3085 164.15717,1017.7659 C 164.14546,1017.1314 164.24546,1016.9282 164.56499,1016.3852 C 164.77199,1016.0275 164.98745,1015.7977 164.71159,1015.4 C 164.31034,1014.8215 163.69165,1015.3578 163.29396,1015.6336 L 161.3055,1017.0129 C 160.92589,1017.2763 160.27512,1017.7277 160.66383,1018.288 C 160.91461,1018.6496 161.24292,1018.5825 161.62546,1018.4778 C 162.20831,1018.3145 162.6384,1018.4713 162.98949,1018.9775 C 163.20265,1019.2848 163.24173,1019.4183 163.35197,1019.7702 L 165.05656,1024.505 L 166.85423,1026.0158"
         style="font-size:22px;font-style:normal;font-variant:normal;font-weight:bold;font-stretch:normal;text-align:start;line-height:125%;writing-mode:lr-tb;text-anchor:start;fill:#000000;fill-opacity:1;stroke:none;font-family:Stencil Std;-inkscape-font-specification:Stencil Std Bold"
         id="path3869"
         inkscape:connector-curvature="0" />
      <path
         d="M 167.05953,1016.205 L 167.01065,1016.2493 L 171.54487,1025.1761 C 172.28484,1026.6138 172.18491,1027.3877 172.00535,1027.8774 C 171.8095,1028.3818 171.51772,1028.6168 171.8725,1029.0079 C 172.30119,1029.4804 172.90254,1028.9645 173.22841,1028.6689 L 175.10218,1026.9689 C 175.42805,1026.6732 175.96423,1026.2165 175.55032,1025.7603 C 175.25467,1025.4344 174.93787,1025.5436 174.57369,1025.6661 C 173.79798,1025.9243 173.31857,1025.8542 172.67754,1024.6238 L 169.15357,1017.6618 L 167.05953,1016.205 M 176.81059,1021.9435 C 177.53375,1022.4459 177.57205,1022.6191 177.37015,1023.2478 C 177.26181,1023.554 177.23796,1023.7242 177.47448,1023.9849 C 177.85882,1024.4085 178.3609,1024.0124 178.68677,1023.7168 L 182.74388,1020.036 C 183.05346,1019.7551 183.65481,1019.2392 183.25569,1018.7993 C 182.9896,1018.506 182.7069,1018.5546 182.39009,1018.6638 C 181.75648,1018.8821 181.45932,1018.5873 180.94766,1018.2198 L 169.16116,1010.1396 L 165.56027,1013.4065 L 166.1467,1014.4785 L 174.32616,1020.1873 L 172.33834,1021.9907 L 172.96761,1023.1427 L 175.34648,1020.9845 L 176.81059,1021.9435"
         style="font-size:22px;font-style:normal;font-variant:normal;font-weight:bold;font-stretch:normal;text-align:start;line-height:125%;writing-mode:lr-tb;text-anchor:start;fill:#000000;fill-opacity:1;stroke:none;font-family:Stencil Std;-inkscape-font-specification:Stencil Std Bold"
         id="path3871"
         inkscape:connector-curvature="0" />
      <path
         d="M 184.58428,1014.1904 C 185.20826,1014.7132 185.32357,1014.7811 185.01461,1015.5267 C 184.8984,1015.8025 184.92303,1016.0814 185.15913,1016.2792 C 185.6482,1016.6889 186.14814,1016.1606 186.20465,1016.0932 L 190.20283,1011.3206 C 190.25934,1011.2531 190.69183,1010.6683 190.20277,1010.2586 C 189.96667,1010.0608 189.68774,1010.0855 189.43662,1010.2482 C 188.75664,1010.683 188.66958,1010.5814 188.0456,1010.0587 L 177.31991,1001.0734 L 173.85859,1005.2051 L 184.58428,1014.1904 M 179.99007,997.88603 L 177.95566,1000.3145 L 178.93379,1001.1339 C 180.29241,1000.7797 181.60325,1001.476 182.62421,1002.073 C 183.0376,1002.3332 183.54671,1002.6162 183.94229,1002.144 C 184.36613,1001.6381 183.9869,1001.2343 183.91945,1001.1778 L 179.99007,997.88603 M 175.11781,1011.6843 C 175.18527,1011.7408 175.64926,1012.0434 176.07309,1011.5375 C 176.46867,1011.0653 176.10084,1010.6136 175.77221,1010.2522 C 175.00555,1009.3517 174.0903,1008.1831 174.20097,1006.7834 L 173.22284,1005.964 L 171.18843,1008.3925 L 175.11781,1011.6843"
         style="font-size:22px;font-style:normal;font-variant:normal;font-weight:bold;font-stretch:normal;text-align:start;line-height:125%;writing-mode:lr-tb;text-anchor:start;fill:#000000;fill-opacity:1;stroke:none;font-family:Stencil Std;-inkscape-font-specification:Stencil Std Bold"
         id="path3873"
         inkscape:connector-curvature="0" />
      <path
         d="M 179.75223,999.29764 C 180.01297,999.46157 180.28598,999.39934 180.51271,999.20405 C 181.12742,998.68099 181.22746,998.76987 181.91658,999.20313 L 191.67599,1005.339 C 192.36511,1005.7722 192.48857,1005.8239 192.2836,1006.6045 C 192.20588,1006.8935 192.26811,1007.1665 192.52886,1007.3305 C 193.06898,1007.67 193.49265,1007.0788 193.53949,1007.0043 L 196.63083,1002.0874 L 182.69946,993.32857 L 179.60811,998.24552 C 179.56127,998.32002 179.21211,998.95806 179.75223,999.29764 M 184.30663,993.16961 C 185.59783,991.69456 187.10764,991.31846 188.9207,991.7827 C 189.25862,991.86522 189.50341,991.88919 189.70248,991.57257 C 190.05377,991.01382 189.71161,990.77272 189.61848,990.71417 L 185.83764,988.33711 L 183.22639,992.49045 L 184.30663,993.16961 M 197.15777,1001.2493 L 199.85098,996.96555 L 196.12602,994.62362 C 196.05152,994.57678 195.5279,994.16962 195.15319,994.76561 C 194.94242,995.10086 195.17016,995.39996 195.36756,995.70598 C 196.54139,997.14562 196.83976,998.94439 196.07752,1000.5701 L 197.15777,1001.2493 M 190.60182,997.12746 C 191.2985,996.47403 192.24735,996.57683 193.06048,996.85417 C 193.43565,996.96011 193.80391,997.03572 194.04981,996.6446 C 194.41281,996.06723 193.68377,995.73881 193.53477,995.64513 L 189.51181,993.11585 C 189.36281,993.02217 188.75086,992.5075 188.38786,993.08487 C 188.14196,993.47599 188.3697,993.77509 188.62777,994.06728 C 189.23013,994.67987 189.73402,995.49042 189.44708,996.40147 L 190.60182,997.12746"
         style="font-size:22px;font-style:normal;font-variant:normal;font-weight:bold;font-stretch:normal;text-align:start;line-height:125%;writing-mode:lr-tb;text-anchor:start;fill:#000000;fill-opacity:1;stroke:none;font-family:Stencil Std;-inkscape-font-specification:Stencil Std Bold"
         id="path3875"
         inkscape:connector-curvature="0" />
    </g>
    <g
       style="font-size:18px;font-style:normal;font-variant:normal;font-weight:normal;font-stretch:normal;text-align:start;line-height:125%;letter-spacing:0px;word-spacing:0px;writing-mode:lr-tb;text-anchor:start;fill:#000000;fill-opacity:1;stroke:none;font-family:Sans;-inkscape-font-specification:Sans"
       id="text3879"
       transform="matrix(0.4286875,0,0,0.4286875,59.482662,529.79979)">
      <path
         d="M 4.3643688,899.68794 C 4.9838075,898.68453 5.8911561,898.85637 6.8017453,899.24486 L 9.8572809,900.54846 C 10.848811,900.97149 11.652561,901.38616 11.365795,902.675 L 12.539444,903.17573 C 13.359592,901.25337 13.640696,900.03386 13.5001,898.8497 C 13.248598,896.97243 12.163425,895.81582 10.463659,895.09063 C 8.7638921,894.36545 7.1779955,894.38249 5.6487895,895.50004 C 4.6966786,896.21801 4.0108673,897.26486 3.1907193,899.18721 L 4.3643688,899.68794 M 13.55678,910.54614 C 14.305487,910.86557 14.435533,910.89713 14.355962,911.70033 C 14.324672,911.99792 14.429092,912.25774 14.712387,912.3786 C 15.299211,912.62896 15.624576,911.97847 15.659108,911.89752 L 18.102288,906.17092 C 18.136821,906.08998 18.381244,905.40495 17.794419,905.15459 C 17.511125,905.03373 17.251308,905.13815 17.058136,905.36667 C 16.533388,905.97994 16.420608,905.90791 15.671901,905.58848 L 2.8022278,900.0978 L 0.52307737,905.43993 C 0.48854482,905.52087 0.24412225,906.20591 0.83094639,906.45627 C 1.1142408,906.57713 1.3740576,906.47271 1.5672296,906.24418 C 2.0919779,905.63091 2.204758,905.70295 2.9534647,906.02237 L 13.55678,910.54614"
         style="font-size:22px;font-style:normal;font-variant:normal;font-weight:bold;font-stretch:normal;text-align:start;line-height:125%;writing-mode:lr-tb;text-anchor:start;font-family:Stencil Std;-inkscape-font-specification:Stencil Std Bold"
         id="path3888"
         inkscape:connector-curvature="0" />
      <path
         d="M 11.861559,888.84991 L 11.826899,888.90608 L 18.659527,896.22467 C 19.769286,897.40068 19.887956,898.17191 19.851279,898.69216 C 19.803049,899.23113 19.58792,899.53786 20.037251,899.81514 C 20.580194,900.15019 21.014838,899.48774 21.245905,899.1133 L 22.574543,896.96025 C 22.80561,896.58581 23.19404,895.99825 22.669819,895.67476 C 22.295376,895.44369 22.021296,895.63648 21.705387,895.85516 C 21.03174,896.31841 20.551715,896.38411 19.594517,895.37981 L 14.277552,889.66867 L 11.861559,888.84991 M 22.82181,891.65813 C 23.655954,891.94021 23.740797,892.09597 23.721242,892.75605 C 23.702103,893.08031 23.726394,893.25041 24.025948,893.43526 C 24.512724,893.73565 24.885217,893.21582 25.116284,892.84137 L 27.993074,888.17955 C 28.212587,887.82383 28.647231,887.16139 28.141733,886.84944 C 27.804734,886.64148 27.546591,886.76655 27.272511,886.95934 C 26.724351,887.34492 26.357076,887.14413 25.763535,886.93297 L 12.198119,882.43957 L 9.6448236,886.57717 L 10.505627,887.44444 L 19.947716,890.66009 L 18.538205,892.94419 L 19.462344,893.8764 L 21.149136,891.14296 L 22.82181,891.65813"
         style="font-size:22px;font-style:normal;font-variant:normal;font-weight:bold;font-stretch:normal;text-align:start;line-height:125%;writing-mode:lr-tb;text-anchor:start;font-family:Stencil Std;-inkscape-font-specification:Stencil Std Bold"
         id="path3890"
         inkscape:connector-curvature="0" />
      <path
         d="M 20.18285,871.16663 C 18.181083,873.70902 18.200639,876.8922 20.756149,879.04898 C 23.395721,881.2767 26.014195,880.11842 28.693115,878.75208 C 29.727266,878.24305 31.214406,877.36784 32.245219,878.29539 C 33.141531,879.10943 32.929646,880.11091 32.500747,881.13076 L 33.475877,881.95374 C 35.525458,879.42291 35.657811,875.82096 33.051864,873.62162 C 31.505108,872.3162 29.357147,871.6549 25.702383,873.66585 C 23.240477,875.01384 22.352984,875.0421 21.529168,874.34682 C 20.839853,873.76506 20.837349,872.81295 21.157979,871.98961 L 20.18285,871.16663 M 24.699589,867.34981 C 24.565089,867.2363 24.021839,866.72023 23.58197,867.24142 C 23.213048,867.67855 23.846679,868.15574 23.477756,868.59287 C 23.321674,868.77781 21.732109,869.36506 20.82137,870.41006 L 21.796499,871.23304 C 23.18908,870.16288 25.346577,870.19889 26.746789,871.06396 C 27.125609,871.29731 27.572752,871.41559 27.913296,871.01209 C 28.324786,870.52453 27.961229,870.10254 27.57454,869.77619 L 24.699589,867.34981 M 28.843,885.87405 C 28.927062,885.945 29.549128,886.47 29.988997,885.94881 C 30.34373,885.5285 29.746348,885.11069 30.200406,884.57268 C 30.711221,883.96743 31.569261,884.14462 32.837357,882.7103 L 31.862227,881.88732 C 30.310941,883.11142 27.85189,882.64818 26.308234,881.74841 C 25.979853,881.55763 25.5122,881.56598 25.228414,881.90223 C 24.831113,882.37298 25.245108,882.83753 25.598172,883.13551 L 28.843,885.87405"
         style="font-size:22px;font-style:normal;font-variant:normal;font-weight:bold;font-stretch:normal;text-align:start;line-height:125%;writing-mode:lr-tb;text-anchor:start;font-family:Stencil Std;-inkscape-font-specification:Stencil Std Bold"
         id="path3892"
         inkscape:connector-curvature="0" />
      <path
         d="M 31.453961,859.4965 C 29.115834,861.73346 28.689356,864.888 30.917594,867.38145 C 33.21913,869.95692 35.974024,869.1768 38.81791,868.19913 C 39.913162,867.83997 41.508226,867.18168 42.398963,868.24447 C 43.172425,869.17602 42.822359,870.13795 42.254847,871.08767 L 43.105097,872.03912 C 45.488947,869.8203 46.124489,866.2724 43.852273,863.72974 C 42.503602,862.22055 40.469436,861.26493 36.569041,862.74416 C 33.942601,863.73404 33.059899,863.63772 32.341585,862.83391 C 31.740547,862.16134 31.871422,861.21826 32.30421,860.44794 L 31.453961,859.4965 M 36.460766,856.34993 C 36.343491,856.21869 35.877876,855.63163 35.369345,856.08607 C 34.942834,856.46722 35.503383,857.02845 35.076873,857.4096 C 34.896426,857.57085 33.240279,857.92968 32.192152,858.83682 L 33.042402,859.78827 C 34.571144,858.9237 36.702331,859.26154 37.967578,860.3142 C 38.30998,860.5983 38.736149,860.77805 39.129851,860.42622 C 39.605574,860.0011 39.304704,859.53235 38.967537,859.15505 L 36.460766,856.34993 M 37.968802,875.2719 C 38.0421,875.35392 38.584501,875.96088 39.093032,875.50643 C 39.503138,875.13995 38.970164,874.64258 39.4951,874.17348 C 40.085653,873.64574 40.910417,873.94136 42.366905,872.69879 L 41.516656,871.74735 C 39.809212,872.7421 37.439282,871.93901 36.036866,870.8319 C 35.738442,870.59701 35.27423,870.53978 34.946145,870.83296 C 34.486827,871.24343 34.831675,871.76139 35.139523,872.10588 L 37.968802,875.2719"
         style="font-size:22px;font-style:normal;font-variant:normal;font-weight:bold;font-stretch:normal;text-align:start;line-height:125%;writing-mode:lr-tb;text-anchor:start;font-family:Stencil Std;-inkscape-font-specification:Stencil Std Bold"
         id="path3894"
         inkscape:connector-curvature="0" />
      <path
         d="M 46.412067,851.39038 C 45.94586,850.72312 45.852225,850.62751 46.344822,849.98813 C 46.528866,849.75219 46.577773,849.47648 46.40137,849.224 C 46.035964,848.701 45.415633,849.08074 45.343496,849.13114 L 40.239797,852.697 C 40.16766,852.7474 39.59773,853.19928 39.963136,853.72227 C 40.139538,853.97475 40.415249,854.02365 40.700095,853.93199 C 41.469896,853.68936 41.527464,853.81017 41.993671,854.47743 L 48.596178,863.92739 C 49.062385,864.59466 49.156021,864.69026 48.663424,865.32965 C 48.47938,865.56559 48.430473,865.8413 48.606876,866.09378 C 48.972281,866.61677 49.592613,866.23703 49.66475,866.18663 L 54.768448,862.62077 C 54.840585,862.57037 55.410515,862.1185 55.04511,861.5955 C 54.868707,861.34302 54.592996,861.29412 54.30815,861.38578 C 53.538349,861.62841 53.480781,861.50761 53.014574,860.84034 L 46.412067,851.39038"
         style="font-size:22px;font-style:normal;font-variant:normal;font-weight:bold;font-stretch:normal;text-align:start;line-height:125%;writing-mode:lr-tb;text-anchor:start;font-family:Stencil Std;-inkscape-font-specification:Stencil Std Bold"
         id="path3896"
         inkscape:connector-curvature="0" />
      <path
         d="M 63.09352,853.01219 L 56.2097,845.85542 C 56.027694,845.65312 55.937281,845.57656 55.813581,845.34333 C 55.39094,844.54648 56.421342,844.42331 56.019317,843.66533 C 55.648217,842.96565 54.777163,843.57707 54.330147,843.81416 L 50.073776,846.07168 C 49.62676,846.30878 48.800161,846.72229 49.140336,847.36366 C 49.284653,847.63576 49.532912,847.72821 49.827988,847.72112 C 50.476445,847.67602 50.449065,847.76526 50.90349,848.24642 L 61.263366,858.76424 L 64.062076,857.27983 L 63.09352,853.01219 M 62.698796,851.32892 L 62.737667,851.30831 L 61.164354,844.39797 C 61.043875,843.8891 60.962267,843.35962 60.998454,842.81747 C 61.062021,842.18608 61.185399,841.99613 61.567021,841.49489 C 61.814958,841.16416 62.05613,840.96154 61.829346,840.53396 C 61.49948,839.91202 60.821599,840.37117 60.394019,840.59796 L 58.256116,841.73187 C 57.847971,841.94835 57.148293,842.31945 57.467851,842.92195 C 57.674018,843.31066 58.007965,843.28295 58.400218,843.22433 C 58.998316,843.13123 59.406784,843.33793 59.695417,843.88212 C 59.870659,844.21253 59.893638,844.34976 59.961394,844.71227 L 61.092844,849.6157 L 62.698796,851.32892"
         style="font-size:22px;font-style:normal;font-variant:normal;font-weight:bold;font-stretch:normal;text-align:start;line-height:125%;writing-mode:lr-tb;text-anchor:start;font-family:Stencil Std;-inkscape-font-specification:Stencil Std Bold"
         id="path3898"
         inkscape:connector-curvature="0" />
      <path
         d="M 64.517029,839.50834 C 64.620414,839.79847 64.873389,839.91852 65.172333,839.90541 C 65.978889,839.87491 66.002475,840.00664 66.275706,840.77341 L 70.145258,851.63257 C 70.418489,852.39934 70.48352,852.5163 69.839426,853.00272 C 69.599559,853.18161 69.479508,853.43459 69.582893,853.72472 C 69.797047,854.3257 70.495695,854.12346 70.578589,854.09392 L 76.049617,852.14437 L 70.525905,836.64313 L 65.054878,838.59267 C 64.971984,838.62221 64.302875,838.90735 64.517029,839.50834 M 71.886776,837.51279 C 73.813835,837.15307 75.232588,837.79191 76.369556,839.27852 C 76.583943,839.55245 76.761408,839.72276 77.113709,839.59722 C 77.735416,839.37568 77.615832,838.97455 77.578909,838.87093 L 76.079827,834.66405 L 71.458467,836.31082 L 71.886776,837.51279 M 76.982178,851.81206 L 81.748603,850.1136 L 80.271675,845.96888 C 80.242136,845.88598 80.082767,845.24212 79.419613,845.47843 C 79.046589,845.61135 79.040401,845.98724 79.006106,846.34979 C 79.03734,848.20706 78.158631,849.8047 76.553869,850.6101 L 76.982178,851.81206 M 74.382784,844.51736 C 75.334405,844.43517 76.016156,845.10308 76.483284,845.82411 C 76.712441,846.13949 76.954937,846.42676 77.390132,846.27168 C 78.032562,846.04276 77.663098,845.33363 77.604021,845.16784 L 76.008939,840.69155 C 75.949861,840.52576 75.787632,839.74279 75.145201,839.97171 C 74.710006,840.12679 74.703818,840.50267 74.725739,840.8919 C 74.819843,841.74585 74.714096,842.69438 73.924937,843.2325 L 74.382784,844.51736"
         style="font-size:22px;font-style:normal;font-variant:normal;font-weight:bold;font-stretch:normal;text-align:start;line-height:125%;writing-mode:lr-tb;text-anchor:start;font-family:Stencil Std;-inkscape-font-specification:Stencil Std Bold"
         id="path3900"
         inkscape:connector-curvature="0" />
      <path
         d="M 96.40933,831.98173 C 97.762627,832.00462 97.970208,833.24308 98.064877,834.07371 L 99.126172,843.38542 C 99.220841,844.21604 99.297268,845.46945 97.983833,845.79629 L 98.128328,847.06408 C 101.75683,846.65052 105.10463,843.19116 104.27873,838.08183 C 103.37367,832.47224 99.975791,830.2467 96.264835,830.71393 L 96.40933,831.98173 M 95.281203,830.82604 L 89.68543,831.46381 C 89.248261,831.51364 88.709272,831.6415 88.774046,832.20982 C 88.836329,832.75628 89.259114,832.77452 89.713723,832.87771 C 90.143981,832.96152 90.16753,833.55668 90.204899,833.88456 L 91.510341,845.33841 C 91.602519,846.14717 91.639325,846.27583 90.901683,846.60347 C 90.627488,846.72329 90.453183,846.94244 90.488061,847.24846 C 90.560309,847.88235 91.111754,847.86379 91.592641,847.80898 L 97.144696,847.17619 L 95.281203,830.82604"
         style="font-size:22px;font-style:normal;font-variant:normal;font-weight:bold;font-stretch:normal;text-align:start;line-height:125%;writing-mode:lr-tb;text-anchor:start;font-family:Stencil Std;-inkscape-font-specification:Stencil Std Bold"
         id="path3902"
         inkscape:connector-curvature="0" />
      <path
         d="M 113.76222,832.52311 C 113.77645,831.70924 113.75676,831.57687 114.53088,831.34837 C 114.81837,831.26539 115.0198,831.07088 115.02519,830.76293 C 115.03634,830.12503 114.31122,830.06834 114.22324,830.0668 L 107.99819,829.95794 C 107.9102,829.9564 107.18354,829.9877 107.17239,830.6256 C 107.167,830.93356 107.36151,831.13499 107.64593,831.22798 C 108.41158,831.4834 108.38728,831.615 108.37304,832.42887 L 108.17148,843.95511 C 108.15725,844.76899 108.17694,844.90135 107.40282,845.12985 C 107.11533,845.21284 106.9139,845.40734 106.90851,845.7153 C 106.89736,846.3532 107.62248,846.40989 107.71046,846.41143 L 113.93551,846.52028 C 114.0235,846.52182 114.75016,846.49052 114.76131,845.85262 C 114.7667,845.54467 114.57219,845.34324 114.28777,845.25025 C 113.52212,844.99482 113.54642,844.86323 113.56066,844.04935 L 113.76222,832.52311"
         style="font-size:22px;font-style:normal;font-variant:normal;font-weight:bold;font-stretch:normal;text-align:start;line-height:125%;writing-mode:lr-tb;text-anchor:start;font-family:Stencil Std;-inkscape-font-specification:Stencil Std Bold"
         id="path3904"
         inkscape:connector-curvature="0" />
      <path
         d="M 124.56852,830.70643 C 121.35008,830.37108 118.66891,832.087 118.20949,835.39929 C 117.73496,838.82053 120.11227,840.41628 122.6978,841.95205 C 123.68031,842.55475 125.21429,843.34499 124.98029,844.7118 C 124.77047,845.90428 123.81053,846.25977 122.7192,846.44156 L 122.5439,847.70547 C 125.77809,848.08742 128.89445,846.27639 129.36294,842.89872 C 129.64101,840.89392 129.05346,838.72463 125.40192,836.70783 C 122.94778,835.34575 122.45008,834.6104 122.59819,833.54263 C 122.72211,832.64918 123.52585,832.13876 124.39322,831.97033 L 124.56852,830.70643 M 130.20723,832.488 C 130.23141,832.31367 130.37776,831.57881 129.70222,831.48511 C 129.13565,831.40653 129.07042,832.19706 128.50384,832.11848 C 128.26414,832.08523 126.91897,831.05465 125.54914,830.84244 L 125.37383,832.10634 C 127.02218,832.71255 128.14353,834.55609 128.15958,836.2019 C 128.1645,836.64679 128.3032,837.08803 128.82619,837.16057 C 129.45814,837.24822 129.62087,836.71553 129.69038,836.21433 L 130.20723,832.488 M 116.75568,845.88095 C 116.74056,845.9899 116.62873,846.79618 117.30426,846.88988 C 117.84905,846.96544 117.88342,846.23726 118.58074,846.33398 C 119.36523,846.44279 119.67348,847.26291 121.56329,847.56945 L 121.73859,846.30555 C 119.87536,845.64733 118.95426,843.32072 118.89098,841.5351 C 118.87699,841.15558 118.62027,840.7646 118.18444,840.70415 C 117.57428,840.61952 117.40249,841.21759 117.33902,841.67521 L 116.75568,845.88095"
         style="font-size:22px;font-style:normal;font-variant:normal;font-weight:bold;font-stretch:normal;text-align:start;line-height:125%;writing-mode:lr-tb;text-anchor:start;font-family:Stencil Std;-inkscape-font-specification:Stencil Std Bold"
         id="path3906"
         inkscape:connector-curvature="0" />
      <path
         d="M 132.5198,846.54155 C 132.28389,847.32061 132.26669,847.45332 131.4596,847.46178 C 131.16037,847.46311 130.91349,847.59523 130.82422,847.89001 C 130.63932,848.50063 131.32141,848.75315 131.40563,848.77865 L 137.36442,850.58307 C 137.44864,850.60857 138.15624,850.77687 138.34114,850.16625 C 138.4304,849.87147 138.29829,849.62458 138.05007,849.45747 C 137.38325,849.0027 137.44256,848.88274 137.67847,848.10367 L 141.73362,834.71219 L 136.1749,833.02892 C 136.09067,833.00342 135.38308,832.83512 135.19817,833.44574 C 135.10891,833.74052 135.24103,833.9874 135.48925,834.15452 C 136.15607,834.60929 136.09675,834.72925 135.86084,835.50831 L 132.5198,846.54155 M 142.30495,836.2414 C 143.24297,836.93921 143.32156,837.51469 143.00276,838.56747 L 142.23126,841.11522 C 141.91884,842.14696 141.56103,842.79717 140.39214,842.55814 L 140.01596,843.80043 C 141.24105,844.30933 140.90505,845.49483 140.61175,846.4634 L 140.17818,847.89519 C 139.87851,848.88481 139.70324,849.84315 140.21066,850.82432 C 140.66573,851.6747 141.41677,852.15498 142.32217,852.42915 C 143.22757,852.70332 144.03658,852.76441 144.93101,852.39163 C 145.50263,852.17396 146.43338,851.6053 146.61829,850.99468 C 146.70755,850.6999 146.4663,850.28205 146.19257,850.19916 C 145.68724,850.04614 145.43916,850.63762 145.10227,850.53561 C 144.82855,850.45272 145.01923,850.05073 145.07662,849.86123 L 145.63771,848.00832 C 146.27145,845.76366 144.64749,844.67424 142.85641,843.83305 L 142.86916,843.79094 C 145.16988,843.93595 147.08892,843.36774 147.78005,840.93358 C 148.24357,839.32696 147.87836,837.9521 146.67803,836.83007 C 145.59959,835.83689 144.15504,835.44543 142.78641,835.03099 L 142.68114,834.99911 L 142.30495,836.2414"
         style="font-size:22px;font-style:normal;font-variant:normal;font-weight:bold;font-stretch:normal;text-align:start;line-height:125%;writing-mode:lr-tb;text-anchor:start;font-family:Stencil Std;-inkscape-font-specification:Stencil Std Bold"
         id="path3908"
         inkscape:connector-curvature="0" />
      <path
         d="M 159.82187,854.82095 C 158.82842,856.51336 157.60853,857.18258 155.52267,856.82871 L 154.94237,857.98977 C 156.23133,858.60941 159.16327,858.59911 160.94357,855.43077 L 164.6516,848.01181 C 166.19592,845.70932 167.07178,847.10627 167.49471,846.26008 C 167.79962,845.65003 166.97311,845.28613 166.75664,845.17794 L 164.51324,844.05668 C 164.29677,843.94848 163.50961,843.50587 163.2047,844.11591 C 162.78177,844.96211 164.42481,844.82411 163.51022,847.44135 L 159.82187,854.82095 M 154.61744,856.42547 C 153.35791,855.25486 154.31203,853.78874 154.41039,853.59196 L 159.14132,844.12639 C 159.50524,843.39827 159.54458,843.27036 160.34153,843.39814 C 160.6367,843.44728 160.90233,843.35869 161.04003,843.08319 C 161.32526,842.5125 160.69553,842.14857 160.61681,842.10922 L 155.04767,839.32574 C 154.96896,839.2864 154.29988,839.00118 154.01465,839.57187 C 153.87695,839.84738 153.96554,840.11301 154.18202,840.31959 C 154.76259,840.8803 154.6839,840.98854 154.31998,841.71666 L 149.6579,851.04448 C 149.16612,852.02842 149.02851,852.89425 150.30783,854.7634 C 151.29193,856.18986 152.48251,856.80951 154.03714,857.58653 L 154.61744,856.42547"
         style="font-size:22px;font-style:normal;font-variant:normal;font-weight:bold;font-stretch:normal;text-align:start;line-height:125%;writing-mode:lr-tb;text-anchor:start;font-family:Stencil Std;-inkscape-font-specification:Stencil Std Bold"
         id="path3910"
         inkscape:connector-curvature="0" />
      <path
         d="M 176.70561,853.37097 C 177.54595,854.19823 177.17644,855.04456 176.595,855.84582 L 174.64393,858.53451 C 174.01081,859.40699 173.42763,860.09827 172.23495,859.5318 L 171.48554,860.56454 C 173.17709,861.79203 174.30343,862.33755 175.48917,862.46407 C 177.37533,862.63677 178.74448,861.83629 179.82984,860.3406 C 180.9152,858.84491 181.25162,857.29501 180.50251,855.5554 C 180.0145,854.46736 179.14658,853.56572 177.45502,852.33823 L 176.70561,853.37097 M 164.07359,859.91568 C 163.59551,860.57449 163.53579,860.69425 162.77046,860.43788 C 162.4873,860.34113 162.21076,860.3851 162.02986,860.63438 C 161.65515,861.15075 162.21691,861.61275 162.28813,861.66443 L 167.32719,865.32107 C 167.39841,865.37275 168.01185,865.76353 168.38655,865.24716 C 168.56745,864.99788 168.52348,864.72134 168.34369,864.48214 C 167.86262,863.83405 167.95795,863.74013 168.43602,863.08131 L 176.65376,851.75679 L 171.95301,848.34565 C 171.88179,848.29397 171.26835,847.90319 170.89365,848.41956 C 170.71275,848.66884 170.75672,848.94538 170.93651,849.18458 C 171.41758,849.83268 171.32225,849.92659 170.84418,850.58541 L 164.07359,859.91568"
         style="font-size:22px;font-style:normal;font-variant:normal;font-weight:bold;font-stretch:normal;text-align:start;line-height:125%;writing-mode:lr-tb;text-anchor:start;font-family:Stencil Std;-inkscape-font-specification:Stencil Std Bold"
         id="path3912"
         inkscape:connector-curvature="0" />
      <path
         d="M 178.80649,871.58334 C 178.2341,872.1621 178.15692,872.27142 177.43927,871.90203 C 177.17405,871.76348 176.89404,871.76503 176.67745,871.98402 C 176.22882,872.43764 176.71407,872.97944 176.77663,873.04132 L 181.20334,877.41938 C 181.2659,877.48126 181.81303,877.96049 182.26167,877.50687 C 182.47825,877.28788 182.4767,877.00787 182.33524,876.74419 C 181.95794,876.03067 182.0664,875.95229 182.6388,875.37353 L 192.47783,865.42519 L 188.64552,861.635 L 178.80649,871.58334 M 195.43417,868.34905 L 193.18172,866.12135 L 192.28445,867.02859 C 192.52544,868.41179 191.72339,869.66075 191.04425,870.62901 C 190.75084,871.01954 190.42682,871.50359 190.8648,871.93675 C 191.33406,872.40086 191.76774,872.05622 191.82962,871.99365 L 195.43417,868.34905 M 182.08463,862.35573 C 182.02274,862.4183 181.68292,862.85576 182.15218,863.31987 C 182.59016,863.75303 183.07059,863.42369 183.45786,863.12598 C 184.41856,862.43618 185.65858,861.62039 187.04436,861.84608 L 187.94163,860.93884 L 185.68918,858.71113 L 182.08463,862.35573"
         style="font-size:22px;font-style:normal;font-variant:normal;font-weight:bold;font-stretch:normal;text-align:start;line-height:125%;writing-mode:lr-tb;text-anchor:start;font-family:Stencil Std;-inkscape-font-specification:Stencil Std Bold"
         id="path3914"
         inkscape:connector-curvature="0" />
      <path
         d="M 199.5215,877.494 C 200.15993,876.98902 200.24982,876.88988 200.9173,877.34367 C 201.16375,877.51339 201.44187,877.54585 201.68344,877.35478 C 202.18383,876.95898 201.76796,876.36228 201.71336,876.29326 L 197.85096,871.41013 C 197.79637,871.34111 197.31147,870.799 196.81108,871.19479 C 196.56951,871.38586 196.53705,871.66399 196.64546,871.94289 C 196.93334,872.69694 196.81616,872.76158 196.17773,873.26655 L 187.13618,880.41814 C 186.49775,880.92312 186.40787,881.02226 185.74038,880.56847 C 185.49394,880.39875 185.21581,880.36629 184.97424,880.55736 C 184.47385,880.95315 184.88973,881.54986 184.94432,881.61888 L 188.80672,886.50201 C 188.86131,886.57103 189.34621,887.11314 189.8466,886.71735 C 190.08817,886.52627 190.12063,886.24815 190.01223,885.96924 C 189.72435,885.21519 189.84152,885.15056 190.47995,884.64558 L 199.5215,877.494"
         style="font-size:22px;font-style:normal;font-variant:normal;font-weight:bold;font-stretch:normal;text-align:start;line-height:125%;writing-mode:lr-tb;text-anchor:start;font-family:Stencil Std;-inkscape-font-specification:Stencil Std Bold"
         id="path3916"
         inkscape:connector-curvature="0" />
      <path
         d="M 198.89109,894.24415 L 205.62826,886.94916 C 205.81945,886.75551 205.89053,886.66073 206.11603,886.52345 C 206.88649,886.05443 207.07038,887.07574 207.80326,886.6296 C 208.47977,886.21777 207.81792,885.3844 207.5548,884.95219 L 205.04953,880.83676 C 204.78642,880.40455 204.32474,879.60385 203.70461,879.98136 C 203.44153,880.14151 203.36392,880.3948 203.38844,880.68894 C 203.47181,881.3336 203.38111,881.31154 202.92766,881.79363 L 193.04089,892.75734 L 194.68819,895.46338 L 198.89109,894.24415 M 200.54807,893.75058 L 200.57095,893.78816 L 207.37615,891.80896 C 207.87701,891.6586 208.40074,891.54582 208.94408,891.54988 C 209.57812,891.576 209.77504,891.68793 210.29797,892.03925 C 210.64278,892.26719 210.85931,892.49596 211.27273,892.24429 C 211.87407,891.87822 211.37564,891.22868 211.12396,890.81526 L 209.86561,888.74815 C 209.62538,888.35352 209.21355,887.67701 208.631,888.03164 C 208.25516,888.26043 208.30257,888.59216 208.38429,888.98025 C 208.51259,889.5718 208.3304,889.99178 207.80423,890.31209 C 207.48477,890.50656 207.34914,890.53761 206.99127,890.62669 L 202.16332,892.04612 L 200.54807,893.75058"
         style="font-size:22px;font-style:normal;font-variant:normal;font-weight:bold;font-stretch:normal;text-align:start;line-height:125%;writing-mode:lr-tb;text-anchor:start;font-family:Stencil Std;-inkscape-font-specification:Stencil Std Bold"
         id="path3918"
         inkscape:connector-curvature="0" />
      <path
         d="M 212.4549,894.86659 C 212.17139,894.98696 212.06652,895.24659 212.09728,895.54424 C 212.17544,896.34758 212.04534,896.37891 211.29608,896.69702 L 200.68483,901.20216 C 199.93556,901.52027 199.82266,901.59211 199.29899,900.97792 C 199.10622,900.74905 198.84658,900.64417 198.56308,900.76454 C 197.97582,901.01387 198.21903,901.69933 198.25342,901.78033 L 200.52319,907.12646 L 215.67054,900.69546 L 213.40077,895.34933 C 213.36638,895.26833 213.04216,894.61726 212.4549,894.86659 M 214.8829,902.10539 C 215.35598,904.00779 214.80219,905.46185 213.38544,906.68477 C 213.12467,906.91498 212.96515,907.10221 213.11131,907.44647 C 213.36924,908.05398 213.7626,907.91088 213.86385,907.86789 L 217.97469,906.12258 L 216.05743,901.60673 L 214.8829,902.10539 M 200.91008,908.03773 L 202.88753,912.69533 L 206.93762,910.97582 C 207.01862,910.94143 207.65193,910.74425 207.37681,910.09623 C 207.22205,909.73173 206.84646,909.74778 206.48252,909.735 C 204.63035,909.87604 202.98352,909.09338 202.08461,907.53907 L 200.91008,908.03773 M 208.03825,905.01137 C 208.17659,905.95647 207.55017,906.67653 206.85804,907.1855 C 206.55677,907.43291 206.28434,907.69197 206.46489,908.11723 C 206.73142,908.74499 207.41745,908.33423 207.57945,908.26545 L 211.95355,906.40837 C 212.11556,906.33959 212.88756,906.13133 212.62104,905.50356 C 212.44049,905.0783 212.06489,905.09436 211.67765,905.13927 C 210.83075,905.28372 209.87763,905.23427 209.29377,904.47832 L 208.03825,905.01137"
         style="font-size:22px;font-style:normal;font-variant:normal;font-weight:bold;font-stretch:normal;text-align:start;line-height:125%;writing-mode:lr-tb;text-anchor:start;font-family:Stencil Std;-inkscape-font-specification:Stencil Std Bold"
         id="path3920"
         inkscape:connector-curvature="0" />
    </g>
    <g
       transform="matrix(-0.6501391,0,0,0.55372765,40.519678,374.42519)"
       style="font-size:137.00894165px;font-style:normal;font-variant:normal;font-weight:normal;font-stretch:normal;text-align:start;line-height:125%;letter-spacing:0px;word-spacing:0px;writing-mode:lr-tb;text-anchor:start;fill:#000000;fill-opacity:1;stroke:none;font-family:Designer Block;-inkscape-font-specification:Designer Block"
       id="text3922">
      <path
         d="M -65.904241,1072.5945 C -71.521602,1072.5945 -75.357858,1068.7582 -75.357858,1063.1409 L -75.357858,996.41751 L -88.921743,996.41751 L -88.921743,1063.1409 C -88.921743,1068.7582 -92.483981,1072.5945 -98.101342,1072.5945 C -103.7187,1072.5945 -107.28094,1068.7582 -107.28094,1063.1409 L -107.28094,996.41751 L -120.84483,996.41751 L -120.84483,1063.1409 C -120.84483,1068.7582 -124.68108,1072.5945 -130.29844,1072.5945 C -135.7788,1072.5945 -139.47804,1068.7582 -139.47804,1063.1409 L -139.47804,998.60965 C -139.47804,992.85528 -137.4229,987.92295 -133.44965,983.81269 C -129.47639,979.70242 -124.54406,977.64729 -118.65268,977.64729 L -77.550001,977.64729 C -71.658622,977.64729 -66.726291,979.70242 -62.753035,983.81269 C -58.77978,987.92295 -56.724642,992.85528 -56.724642,998.60965 L -56.724642,1063.1409 C -56.724642,1068.6212 -60.423889,1072.5945 -65.904241,1072.5945"
         id="path3947"
         inkscape:connector-curvature="0" />
    </g>
  </g>
</svg>
