<?xml version="1.0" encoding="UTF-8" standalone="no"?>
<!-- Created with Inkscape (http://www.inkscape.org/) -->

<svg
   xmlns:dc="http://purl.org/dc/elements/1.1/"
   xmlns:cc="http://creativecommons.org/ns#"
   xmlns:rdf="http://www.w3.org/1999/02/22-rdf-syntax-ns#"
   xmlns:svg="http://www.w3.org/2000/svg"
   xmlns="http://www.w3.org/2000/svg"
   xmlns:sodipodi="http://sodipodi.sourceforge.net/DTD/sodipodi-0.dtd"
   xmlns:inkscape="http://www.inkscape.org/namespaces/inkscape"
   width="354.33069"
   height="354.33069"
   id="svg2"
   version="1.1"
   inkscape:version="0.48.2 r9819"
   sodipodi:docname="sample3.svg">
  <sodipodi:namedview
     id="base"
     pagecolor="#ffffff"
     bordercolor="#666666"
     borderopacity="1.0"
     inkscape:pageopacity="0.0"
     inkscape:pageshadow="2"
     inkscape:zoom="1.8598446"
     inkscape:cx="177.16534"
     inkscape:cy="177.16534"
     inkscape:document-units="mm"
     inkscape:current-layer="layer1"
     showgrid="false"
     units="mm"
     inkscape:window-width="871"
     inkscape:window-height="829"
     inkscape:window-x="0"
     inkscape:window-y="0"
     inkscape:window-maximized="0" />
  <defs
     id="defs4" />
  <metadata
     id="metadata7">
    <rdf:RDF>
      <cc:Work
         rdf:about="">
        <dc:format>image/svg+xml</dc:format>
        <dc:type
           rdf:resource="http://purl.org/dc/dcmitype/StillImage" />
        <dc:title />
      </cc:Work>
    </rdf:RDF>
  </metadata>
  <g
     inkscape:label="Layer 1"
     inkscape:groupmode="layer"
     id="layer1"
     transform="translate(0,-698.03149)">
    <g
       transform="translate(-13.441984,682.97647)"
       style="font-size:18px;font-style:normal;font-variant:normal;font-weight:normal;font-stretch:normal;text-align:start;line-height:125%;letter-spacing:0px;word-spacing:0px;writing-mode:lr-tb;text-anchor:start;fill:#000000;fill-opacity:1;stroke:none;font-family:Sans;-inkscape-font-specification:Sans"
       id="text2985">
      <path
         d="M 136.9576,144.41415 C 135.83259,144.41416 134.968,144.72146 134.36385,145.33603 C 133.75967,145.95062 133.45759,146.83083 133.4576,147.97665 C 133.45759,149.12249 133.75967,150.0027 134.36385,150.61728 C 134.968,151.22145 135.83259,151.52353 136.9576,151.52353 C 138.07217,151.52353 138.92633,151.22145 139.5201,150.61728 C 140.11383,150.0027 140.41071,149.12249 140.41072,147.97665 C 140.41071,146.82041 140.11383,145.9402 139.5201,145.33603 C 138.92633,144.72146 138.07217,144.41416 136.9576,144.41415 M 132.56697,142.42978 C 131.1503,142.00271 130.08259,141.34646 129.36385,140.46103 C 128.64509,139.57563 128.28572,138.47146 128.28572,137.14853 C 128.28572,135.1798 129.02009,133.6798 130.48885,132.64853 C 131.95759,131.6173 134.11384,131.10168 136.9576,131.10165 C 139.7805,131.10168 141.92633,131.6173 143.3951,132.64853 C 144.86383,133.66938 145.5982,135.16938 145.59822,137.14853 C 145.5982,138.47146 145.23362,139.57563 144.50447,140.46103 C 143.7857,141.34646 142.718,142.00271 141.30135,142.42978 C 142.88466,142.86729 144.07737,143.58083 144.87947,144.5704 C 145.69195,145.54958 146.0982,146.78916 146.09822,148.28915 C 146.0982,150.60166 145.32737,152.35166 143.78572,153.53915 C 142.25445,154.71624 139.97841,155.30478 136.9576,155.30478 C 133.92634,155.30478 131.63467,154.71624 130.0826,153.53915 C 128.54093,152.35166 127.77009,150.60166 127.7701,148.28915 C 127.77009,146.78916 128.17114,145.54958 128.97322,144.5704 C 129.78572,143.58083 130.98363,142.86729 132.56697,142.42978 M 133.97322,137.7579 C 133.97321,138.685 134.22842,139.39854 134.73885,139.89853 C 135.25967,140.39854 135.99925,140.64854 136.9576,140.64853 C 137.89508,140.64854 138.61904,140.39854 139.12947,139.89853 C 139.63987,139.39854 139.89508,138.685 139.8951,137.7579 C 139.89508,136.83084 139.63987,136.12251 139.12947,135.6329 C 138.61904,135.13292 137.89508,134.88292 136.9576,134.8829 C 135.99925,134.88292 135.25967,135.13292 134.73885,135.6329 C 134.22842,136.13292 133.97321,136.84126 133.97322,137.7579"
         style="font-size:32px;font-weight:bold;line-height:125%;font-family:Sans;-inkscape-font-specification:Sans Bold"
         id="path2990"
         inkscape:connector-curvature="0" />
      <path
         d="M 151.2701,154.33603 L 151.2701,150.02353 C 152.22842,150.47145 153.14509,150.80999 154.0201,151.03915 C 154.89509,151.25791 155.75967,151.36728 156.61385,151.36728 C 158.4055,151.36728 159.80133,150.87249 160.80135,149.8829 C 161.80133,148.88291 162.38987,147.40374 162.56697,145.4454 C 161.85862,145.96625 161.10342,146.35687 160.30135,146.61728 C 159.49925,146.8777 158.62946,147.00791 157.69197,147.0079 C 155.30655,147.00791 153.37947,146.3152 151.91072,144.92978 C 150.45239,143.53396 149.72322,141.70063 149.72322,139.42978 C 149.72322,136.91938 150.53572,134.90897 152.16072,133.39853 C 153.79613,131.88814 155.98363,131.13293 158.72322,131.1329 C 161.76487,131.13293 164.11904,132.15897 165.78572,134.21103 C 167.45237,136.26313 168.2857,139.16417 168.28572,142.91415 C 168.2857,146.76833 167.31174,149.79958 165.36385,152.0079 C 163.41591,154.20582 160.74404,155.30478 157.34822,155.30478 C 156.25446,155.30478 155.20759,155.22145 154.2076,155.05478 C 153.20759,154.89853 152.22842,154.65895 151.2701,154.33603 M 158.69197,143.10165 C 159.74404,143.10167 160.53571,142.76312 161.06697,142.08603 C 161.59821,141.39854 161.86383,140.3725 161.86385,139.0079 C 161.86383,137.65375 161.59821,136.63292 161.06697,135.9454 C 160.53571,135.25792 159.74404,134.91417 158.69197,134.91415 C 157.63988,134.91417 156.84821,135.25792 156.31697,135.9454 C 155.78571,136.63292 155.52009,137.65375 155.5201,139.0079 C 155.52009,140.3725 155.78571,141.39854 156.31697,142.08603 C 156.84821,142.76312 157.63988,143.10167 158.69197,143.10165"
         style="font-size:32px;font-weight:bold;line-height:125%;font-family:Sans;-inkscape-font-specification:Sans Bold"
         id="path2992"
         inkscape:connector-curvature="0" />
      <path
         d="M 193.72322,140.55478 C 194.67112,140.55479 195.38987,140.34646 195.87947,139.92978 C 196.36904,139.51313 196.61383,138.89855 196.61385,138.08603 C 196.61383,137.28396 196.36904,136.67459 195.87947,136.2579 C 195.38987,135.83084 194.67112,135.6173 193.72322,135.61728 L 190.3951,135.61728 L 190.3951,140.55478 L 193.72322,140.55478 M 193.92635,150.7579 C 195.13467,150.75791 196.04091,150.5027 196.6451,149.99228 C 197.25966,149.48187 197.56695,148.71104 197.56697,147.67978 C 197.56695,146.66937 197.26487,145.91416 196.66072,145.41415 C 196.05654,144.90375 195.14508,144.64854 193.92635,144.64853 L 190.3951,144.64853 L 190.3951,150.7579 L 193.92635,150.7579 M 199.5201,142.36728 C 200.81174,142.74229 201.81174,143.435 202.5201,144.4454 C 203.22841,145.45583 203.58257,146.69541 203.5826,148.16415 C 203.58257,150.41416 202.82216,152.09124 201.30135,153.1954 C 199.78049,154.29957 197.468,154.85165 194.36385,154.85165 L 184.37947,154.85165 L 184.37947,131.52353 L 193.41072,131.52353 C 196.65029,131.52355 198.99404,132.01314 200.44197,132.99228 C 201.90028,133.97147 202.62945,135.53917 202.62947,137.6954 C 202.62945,138.83084 202.36382,139.79959 201.8326,140.60165 C 201.30133,141.39333 200.53049,141.98188 199.5201,142.36728"
         style="font-size:32px;font-weight:bold;line-height:125%;font-family:Sans;-inkscape-font-specification:Sans Bold"
         id="path2994"
         inkscape:connector-curvature="0" />
      <path
         d="M 225.97322,146.05478 L 225.97322,147.64853 L 212.8951,147.64853 C 213.03051,148.96103 213.50446,149.94541 214.31697,150.60165 C 215.12946,151.25791 216.26488,151.58603 217.72322,151.58603 C 218.90029,151.58603 220.10341,151.41416 221.3326,151.0704 C 222.57216,150.71624 223.84299,150.18499 225.1451,149.47665 L 225.1451,153.78915 C 223.82216,154.28915 222.49925,154.66415 221.17635,154.91415 C 219.85342,155.17457 218.5305,155.30478 217.2076,155.30478 C 214.04092,155.30478 211.57738,154.5027 209.81697,152.89853 C 208.06697,151.28395 207.19197,149.02353 207.19197,146.11728 C 207.19197,143.26312 208.05134,141.01833 209.7701,139.3829 C 211.49926,137.7475 213.87425,136.9298 216.8951,136.92978 C 219.64508,136.9298 221.843,137.75792 223.48885,139.41415 C 225.14508,141.07042 225.9732,143.28396 225.97322,146.05478 M 220.22322,144.1954 C 220.22321,143.13292 219.91071,142.27875 219.28572,141.6329 C 218.67112,140.97667 217.86383,140.64854 216.86385,140.64853 C 215.7805,140.64854 214.9003,140.95583 214.22322,141.5704 C 213.54613,142.17458 213.12426,143.04958 212.9576,144.1954 L 220.22322,144.1954"
         style="font-size:32px;font-weight:bold;line-height:125%;font-family:Sans;-inkscape-font-specification:Sans Bold"
         id="path2996"
         inkscape:connector-curvature="0" />
      <path
         d="M 238.03572,146.97665 C 236.86904,146.97666 235.98884,147.17458 235.3951,147.5704 C 234.81176,147.96624 234.52009,148.54958 234.5201,149.3204 C 234.52009,150.02874 234.75446,150.58603 235.22322,150.99228 C 235.70238,151.38812 236.36384,151.58603 237.2076,151.58603 C 238.25967,151.58603 239.14508,151.21103 239.86385,150.46103 C 240.58258,149.70062 240.94196,148.7527 240.94197,147.61728 L 240.94197,146.97665 L 238.03572,146.97665 M 246.5826,144.86728 L 246.5826,154.85165 L 240.94197,154.85165 L 240.94197,152.2579 C 240.19196,153.32041 239.34821,154.09645 238.41072,154.58603 C 237.47321,155.0652 236.33259,155.30478 234.98885,155.30478 C 233.17634,155.30478 231.70238,154.77874 230.56697,153.72665 C 229.44197,152.66416 228.87947,151.28916 228.87947,149.60165 C 228.87947,147.54958 229.58259,146.04437 230.98885,145.08603 C 232.40551,144.12771 234.62426,143.64854 237.6451,143.64853 L 240.94197,143.64853 L 240.94197,143.21103 C 240.94196,142.32562 240.593,141.67979 239.8951,141.27353 C 239.19717,140.85688 238.10863,140.64854 236.62947,140.64853 C 235.43155,140.64854 234.31696,140.76833 233.28572,141.0079 C 232.25447,141.2475 231.29613,141.60688 230.41072,142.08603 L 230.41072,137.8204 C 231.60863,137.52875 232.81176,137.31 234.0201,137.16415 C 235.22842,137.00792 236.43675,136.9298 237.6451,136.92978 C 240.80133,136.9298 243.07737,137.5548 244.47322,138.80478 C 245.87945,140.04438 246.58258,142.06521 246.5826,144.86728"
         style="font-size:32px;font-weight:bold;line-height:125%;font-family:Sans;-inkscape-font-specification:Sans Bold"
         id="path2998"
         inkscape:connector-curvature="0" />
      <path
         d="M 264.81697,142.11728 C 264.32737,141.88813 263.83779,141.72146 263.34822,141.61728 C 262.86904,141.50271 262.38467,141.44542 261.8951,141.4454 C 260.45758,141.44542 259.34821,141.90896 258.56697,142.83603 C 257.79613,143.75271 257.41071,145.07041 257.41072,146.78915 L 257.41072,154.85165 L 251.81697,154.85165 L 251.81697,137.35165 L 257.41072,137.35165 L 257.41072,140.22665 C 258.12946,139.08084 258.95238,138.2475 259.87947,137.72665 C 260.81696,137.19542 261.93675,136.9298 263.23885,136.92978 C 263.42633,136.9298 263.62946,136.94021 263.84822,136.96103 C 264.06696,136.97146 264.38466,137.00271 264.80135,137.05478 L 264.81697,142.11728"
         style="font-size:32px;font-weight:bold;line-height:125%;font-family:Sans;-inkscape-font-specification:Sans Bold"
         id="path3000"
         inkscape:connector-curvature="0" />
    </g>
    <path
       d="M 88.179416,202.97395 C 88.179416,205.20109 85.65178,207.00655 82.533783,207.00655 C 79.415786,207.00655 76.88815,205.20109 76.88815,202.97395 C 76.88815,200.74681 79.415786,198.94136 82.533783,198.94136 C 85.65178,198.94136 88.179416,200.74681 88.179416,202.97395 z M 127.43001,176.35883 L 122.52657,175.26299 L 120.27503,179.75466 L 119.80198,174.75258 L 114.83438,173.99924 L 119.44547,172.00362 L 118.62686,167.04636 L 121.94971,170.81508 L 126.41139,168.50467 L 123.85394,172.82948 z M 112.91265,179.04722 L 107.02742,186.1595 L 112.50136,193.59298 L 103.91854,190.19361 L 98.540424,197.6967 L 99.121179,188.48349 L 90.323384,185.68718 L 99.265132,183.39247 L 99.205911,174.16117 L 104.15146,181.95617 z M 101.6214,169.36899 L 93.084865,170.15016 L 91.773871,178.62152 L 88.393005,170.74419 L 79.931145,172.11515 L 86.378188,166.46553 L 82.459465,158.84147 L 89.824823,163.22714 L 95.864779,157.14425 L 93.969777,165.50437 z M 159.15309,183.88633 L 65.779557,227.04198 L 75.092437,124.6003 z"
       style="opacity:0.98000004;color:#000000;fill:none;stroke:#0000db;stroke-width:1.5;stroke-linecap:butt;stroke-linejoin:miter;stroke-miterlimit:4;stroke-dashoffset:0;stroke-opacity:1;marker:none;visibility:visible;display:inline;overflow:visible;enable-background:accumulate"
       transform="translate(0,698.03149)"
       id="path3012" />
  </g>
</svg>
